<svg width="623" height="159" viewBox="0 0 623 159" fill="none" xmlns="http://www.w3.org/2000/svg">
<path d="M465.146 53.9325C466.709 51.6172 468.851 49.736 471.571 48.2889C474.349 46.8419 477.504 46.1184 481.035 46.1184C485.144 46.1184 488.849 47.1313 492.148 49.1572C495.505 51.1831 498.139 54.0772 500.049 57.8395C502.017 61.544 503.001 65.8562 503.001 70.7762C503.001 75.6962 502.017 80.0664 500.049 83.8866C498.139 87.6489 495.505 90.572 492.148 92.6558C488.849 94.7395 485.144 95.7814 481.035 95.7814C477.446 95.7814 474.292 95.0868 471.571 93.6976C468.908 92.2506 466.767 90.3984 465.146 88.1409V95H452.991V30.7506H465.146V53.9325ZM490.585 70.7762C490.585 67.8821 489.978 65.3932 488.762 63.3094C487.604 61.1678 486.042 59.5471 484.074 58.4473C482.164 57.3475 480.08 56.7976 477.822 56.7976C475.623 56.7976 473.539 57.3765 471.571 58.5341C469.661 59.6339 468.098 61.2546 466.883 63.3962C465.725 65.5379 465.146 68.0558 465.146 70.9499C465.146 73.844 465.725 76.3619 466.883 78.5035C468.098 80.6452 469.661 82.2948 471.571 83.4525C473.539 84.5522 475.623 85.1021 477.822 85.1021C480.08 85.1021 482.164 84.5233 484.074 83.3656C486.042 82.208 487.604 80.5584 488.762 78.4167C489.978 76.2751 490.585 73.7282 490.585 70.7762ZM538.489 46.2052C544.219 46.2052 548.85 48.0285 552.381 51.6751C555.912 55.2638 557.677 60.2995 557.677 66.7824V95H545.522V68.432C545.522 64.6118 544.567 61.6887 542.656 59.6628C540.746 57.5791 538.142 56.5372 534.842 56.5372C531.485 56.5372 528.823 57.5791 526.855 59.6628C524.944 61.6887 523.989 64.6118 523.989 68.432V95H511.834V46.8998H523.989V52.8906C525.61 50.8068 527.665 49.1861 530.154 48.0285C532.701 46.8129 535.479 46.2052 538.489 46.2052ZM581.391 53.9325C582.954 51.6172 585.096 49.736 587.816 48.2889C590.595 46.8419 593.749 46.1184 597.28 46.1184C601.39 46.1184 605.094 47.1313 608.393 49.1572C611.751 51.1831 614.384 54.0772 616.294 57.8395C618.262 61.544 619.246 65.8562 619.246 70.7762C619.246 75.6962 618.262 80.0664 616.294 83.8866C614.384 87.6489 611.751 90.572 608.393 92.6558C605.094 94.7395 601.39 95.7814 597.28 95.7814C593.691 95.7814 590.537 95.0868 587.816 93.6976C585.154 92.2506 583.012 90.3984 581.391 88.1409V95H569.236V30.7506H581.391V53.9325ZM606.831 70.7762C606.831 67.8821 606.223 65.3932 605.007 63.3094C603.85 61.1678 602.287 59.5471 600.319 58.4473C598.409 57.3475 596.325 56.7976 594.068 56.7976C591.868 56.7976 589.784 57.3765 587.816 58.5341C585.906 59.6339 584.343 61.2546 583.128 63.3962C581.97 65.5379 581.391 68.0558 581.391 70.9499C581.391 73.844 581.97 76.3619 583.128 78.5035C584.343 80.6452 585.906 82.2948 587.816 83.4525C589.784 84.5522 591.868 85.1021 594.068 85.1021C596.325 85.1021 598.409 84.5233 600.319 83.3656C602.287 82.208 603.85 80.5584 605.007 78.4167C606.223 76.2751 606.831 73.7282 606.831 70.7762Z" fill="#8FCD61"/>
<path d="M203.832 46.1184C207.42 46.1184 210.575 46.8419 213.295 48.2889C216.016 49.6781 218.157 51.5014 219.72 53.7588V46.8998H231.962V95.3473C231.962 99.8042 231.065 103.769 229.271 107.242C227.476 110.773 224.785 113.551 221.196 115.577C217.608 117.661 213.266 118.703 208.173 118.703C201.343 118.703 195.728 117.111 191.329 113.928C186.988 110.744 184.528 106.403 183.949 100.904H196.017C196.654 103.104 198.014 104.84 200.098 106.113C202.24 107.445 204.816 108.11 207.825 108.11C211.356 108.11 214.221 107.04 216.421 104.898C218.62 102.814 219.72 99.6306 219.72 95.3473V87.8805C218.157 90.1379 215.987 92.0191 213.208 93.524C210.488 95.0289 207.362 95.7814 203.832 95.7814C199.78 95.7814 196.075 94.7395 192.718 92.6558C189.361 90.572 186.698 87.6489 184.73 83.8866C182.82 80.0664 181.865 75.6962 181.865 70.7762C181.865 65.9141 182.82 61.6019 184.73 57.8395C186.698 54.0772 189.332 51.1831 192.631 49.1572C195.988 47.1313 199.722 46.1184 203.832 46.1184ZM219.72 70.9499C219.72 67.9979 219.141 65.48 217.984 63.3962C216.826 61.2546 215.263 59.6339 213.295 58.5341C211.327 57.3765 209.215 56.7976 206.957 56.7976C204.7 56.7976 202.616 57.3475 200.706 58.4473C198.796 59.5471 197.233 61.1678 196.017 63.3094C194.86 65.3932 194.281 67.8821 194.281 70.7762C194.281 73.6704 194.86 76.2172 196.017 78.4167C197.233 80.5584 198.796 82.208 200.706 83.3656C202.674 84.5233 204.758 85.1021 206.957 85.1021C209.215 85.1021 211.327 84.5522 213.295 83.4525C215.263 82.2948 216.826 80.6741 217.984 78.5904C219.141 76.4487 219.72 73.9019 219.72 70.9499ZM240.708 70.7762C240.708 65.9141 241.664 61.6019 243.574 57.8395C245.542 54.0772 248.175 51.1831 251.475 49.1572C254.832 47.1313 258.565 46.1184 262.675 46.1184C266.264 46.1184 269.389 46.8419 272.052 48.2889C274.772 49.736 276.943 51.5593 278.564 53.7588V46.8998H290.806V95H278.564V87.9673C277.001 90.2247 274.83 92.1059 272.052 93.6108C269.331 95.0579 266.177 95.7814 262.588 95.7814C258.536 95.7814 254.832 94.7395 251.475 92.6558C248.175 90.572 245.542 87.6489 243.574 83.8866C241.664 80.0664 240.708 75.6962 240.708 70.7762ZM278.564 70.9499C278.564 67.9979 277.985 65.48 276.827 63.3962C275.669 61.2546 274.107 59.6339 272.139 58.5341C270.171 57.3765 268.058 56.7976 265.8 56.7976C263.543 56.7976 261.459 57.3475 259.549 58.4473C257.639 59.5471 256.076 61.1678 254.861 63.3094C253.703 65.3932 253.124 67.8821 253.124 70.7762C253.124 73.6704 253.703 76.2172 254.861 78.4167C256.076 80.5584 257.639 82.208 259.549 83.3656C261.517 84.5233 263.601 85.1021 265.8 85.1021C268.058 85.1021 270.171 84.5522 272.139 83.4525C274.107 82.2948 275.669 80.6741 276.827 78.5904C277.985 76.4487 278.564 73.9019 278.564 70.9499ZM362.412 46.2052C368.316 46.2052 373.062 48.0285 376.651 51.6751C380.298 55.2638 382.121 60.2995 382.121 66.7824V95H369.966V68.432C369.966 64.6696 369.011 61.8045 367.1 59.8365C365.19 57.8106 362.586 56.7976 359.286 56.7976C355.987 56.7976 353.353 57.8106 351.385 59.8365C349.475 61.8045 348.52 64.6696 348.52 68.432V95H336.365V68.432C336.365 64.6696 335.41 61.8045 333.5 59.8365C331.59 57.8106 328.985 56.7976 325.686 56.7976C322.328 56.7976 319.666 57.8106 317.698 59.8365C315.788 61.8045 314.833 64.6696 314.833 68.432V95H302.677V46.8998H314.833V52.7169C316.396 50.6911 318.392 49.0993 320.824 47.9416C323.312 46.784 326.033 46.2052 328.985 46.2052C332.747 46.2052 336.104 47.0155 339.056 48.6362C342.008 50.1991 344.295 52.4565 345.916 55.4085C347.478 52.6301 349.736 50.4016 352.688 48.7231C355.698 47.0445 358.939 46.2052 362.412 46.2052ZM390.53 70.7762C390.53 65.9141 391.485 61.6019 393.395 57.8395C395.363 54.0772 397.997 51.1831 401.296 49.1572C404.653 47.1313 408.387 46.1184 412.496 46.1184C416.085 46.1184 419.211 46.8419 421.873 48.2889C424.594 49.736 426.764 51.5593 428.385 53.7588V46.8998H440.627V95H428.385V87.9673C426.822 90.2247 424.652 92.1059 421.873 93.6108C419.153 95.0579 415.998 95.7814 412.409 95.7814C408.358 95.7814 404.653 94.7395 401.296 92.6558C397.997 90.572 395.363 87.6489 393.395 83.8866C391.485 80.0664 390.53 75.6962 390.53 70.7762ZM428.385 70.9499C428.385 67.9979 427.806 65.48 426.648 63.3962C425.491 61.2546 423.928 59.6339 421.96 58.5341C419.992 57.3765 417.879 56.7976 415.622 56.7976C413.364 56.7976 411.281 57.3475 409.371 58.4473C407.46 59.5471 405.898 61.1678 404.682 63.3094C403.524 65.3932 402.946 67.8821 402.946 70.7762C402.946 73.6704 403.524 76.2172 404.682 78.4167C405.898 80.5584 407.46 82.208 409.371 83.3656C411.339 84.5233 413.422 85.1021 415.622 85.1021C417.879 85.1021 419.992 84.5522 421.96 83.4525C423.928 82.2948 425.491 80.6741 426.648 78.5904C427.806 76.4487 428.385 73.9019 428.385 70.9499Z" fill="#222222"/>
<circle cx="79.5" cy="79.5" r="71.5" stroke="#8FCD61" stroke-width="16"/>
<path d="M56.6956 91.1275H42.1837V59.5123L56.6956 57.4392V91.1275Z" fill="#8FCD61"/>
<path d="M102.304 91.6458H116.816V55.8843L102.304 53.2929V91.6458Z" fill="#8FCD61"/>
<path d="M77.4269 91.1275H61.8784V53.3389L77.4269 49.665V91.1275Z" fill="#8FCD61"/>
<rect x="82.6097" y="47.5918" width="14.5119" height="43.5357" fill="#8FCD61"/>
<rect x="82.6097" y="111.859" width="14.5119" height="34.2066" transform="rotate(-90 82.6097 111.859)" fill="#8FCD61"/>
</svg>
