<svg width="623" height="159" viewBox="0 0 623 159" fill="none" xmlns="http://www.w3.org/2000/svg">
<path d="M465.146 67.9325C466.709 65.6172 468.851 63.736 471.571 62.2889C474.349 60.8419 477.504 60.1184 481.035 60.1184C485.144 60.1184 488.849 61.1313 492.148 63.1572C495.505 65.1831 498.139 68.0772 500.049 71.8395C502.017 75.544 503.001 79.8562 503.001 84.7762C503.001 89.6962 502.017 94.0664 500.049 97.8866C498.139 101.649 495.505 104.572 492.148 106.656C488.849 108.74 485.144 109.781 481.035 109.781C477.446 109.781 474.292 109.087 471.571 107.698C468.908 106.251 466.767 104.398 465.146 102.141V109H452.991V44.7506H465.146V67.9325ZM490.585 84.7762C490.585 81.8821 489.978 79.3932 488.762 77.3094C487.604 75.1678 486.042 73.5471 484.074 72.4473C482.164 71.3475 480.08 70.7976 477.822 70.7976C475.623 70.7976 473.539 71.3765 471.571 72.5341C469.661 73.6339 468.098 75.2546 466.883 77.3962C465.725 79.5379 465.146 82.0558 465.146 84.9499C465.146 87.844 465.725 90.3619 466.883 92.5035C468.098 94.6452 469.661 96.2948 471.571 97.4525C473.539 98.5522 475.623 99.1021 477.822 99.1021C480.08 99.1021 482.164 98.5233 484.074 97.3656C486.042 96.208 487.604 94.5584 488.762 92.4167C489.978 90.2751 490.585 87.7282 490.585 84.7762ZM538.489 60.2052C544.219 60.2052 548.85 62.0285 552.381 65.6751C555.912 69.2638 557.677 74.2995 557.677 80.7824V109H545.522V82.432C545.522 78.6118 544.567 75.6887 542.656 73.6628C540.746 71.5791 538.142 70.5372 534.842 70.5372C531.485 70.5372 528.823 71.5791 526.855 73.6628C524.944 75.6887 523.989 78.6118 523.989 82.432V109H511.834V60.8998H523.989V66.8906C525.61 64.8068 527.665 63.1861 530.154 62.0285C532.701 60.8129 535.479 60.2052 538.489 60.2052ZM581.391 67.9325C582.954 65.6172 585.096 63.736 587.816 62.2889C590.595 60.8419 593.749 60.1184 597.28 60.1184C601.39 60.1184 605.094 61.1313 608.393 63.1572C611.751 65.1831 614.384 68.0772 616.294 71.8395C618.262 75.544 619.246 79.8562 619.246 84.7762C619.246 89.6962 618.262 94.0664 616.294 97.8866C614.384 101.649 611.751 104.572 608.393 106.656C605.094 108.74 601.39 109.781 597.28 109.781C593.691 109.781 590.537 109.087 587.816 107.698C585.154 106.251 583.012 104.398 581.391 102.141V109H569.236V44.7506H581.391V67.9325ZM606.831 84.7762C606.831 81.8821 606.223 79.3932 605.007 77.3094C603.85 75.1678 602.287 73.5471 600.319 72.4473C598.409 71.3475 596.325 70.7976 594.068 70.7976C591.868 70.7976 589.784 71.3765 587.816 72.5341C585.906 73.6339 584.343 75.2546 583.128 77.3962C581.97 79.5379 581.391 82.0558 581.391 84.9499C581.391 87.844 581.97 90.3619 583.128 92.5035C584.343 94.6452 585.906 96.2948 587.816 97.4525C589.784 98.5522 591.868 99.1021 594.068 99.1021C596.325 99.1021 598.409 98.5233 600.319 97.3656C602.287 96.208 603.85 94.5584 605.007 92.4167C606.223 90.2751 606.831 87.7282 606.831 84.7762Z" fill="#8FCD61"/>
<path d="M203.832 60.1184C207.42 60.1184 210.575 60.8419 213.295 62.2889C216.016 63.6781 218.157 65.5014 219.72 67.7588V60.8998H231.962V109.347C231.962 113.804 231.065 117.769 229.271 121.242C227.476 124.773 224.785 127.551 221.196 129.577C217.608 131.661 213.266 132.703 208.173 132.703C201.343 132.703 195.728 131.111 191.329 127.928C186.988 124.744 184.528 120.403 183.949 114.904H196.017C196.654 117.104 198.014 118.84 200.098 120.113C202.24 121.445 204.816 122.11 207.825 122.11C211.356 122.11 214.221 121.04 216.421 118.898C218.62 116.814 219.72 113.631 219.72 109.347V101.88C218.157 104.138 215.987 106.019 213.208 107.524C210.488 109.029 207.362 109.781 203.832 109.781C199.78 109.781 196.075 108.74 192.718 106.656C189.361 104.572 186.698 101.649 184.73 97.8866C182.82 94.0664 181.865 89.6962 181.865 84.7762C181.865 79.9141 182.82 75.6019 184.73 71.8395C186.698 68.0772 189.332 65.1831 192.631 63.1572C195.988 61.1313 199.722 60.1184 203.832 60.1184ZM219.72 84.9499C219.72 81.9979 219.141 79.48 217.984 77.3962C216.826 75.2546 215.263 73.6339 213.295 72.5341C211.327 71.3765 209.215 70.7976 206.957 70.7976C204.7 70.7976 202.616 71.3475 200.706 72.4473C198.796 73.5471 197.233 75.1678 196.017 77.3094C194.86 79.3932 194.281 81.8821 194.281 84.7762C194.281 87.6704 194.86 90.2172 196.017 92.4167C197.233 94.5584 198.796 96.208 200.706 97.3656C202.674 98.5233 204.758 99.1021 206.957 99.1021C209.215 99.1021 211.327 98.5522 213.295 97.4525C215.263 96.2948 216.826 94.6741 217.984 92.5904C219.141 90.4487 219.72 87.9019 219.72 84.9499ZM240.708 84.7762C240.708 79.9141 241.664 75.6019 243.574 71.8395C245.542 68.0772 248.175 65.1831 251.475 63.1572C254.832 61.1313 258.565 60.1184 262.675 60.1184C266.264 60.1184 269.389 60.8419 272.052 62.2889C274.772 63.736 276.943 65.5593 278.564 67.7588V60.8998H290.806V109H278.564V101.967C277.001 104.225 274.83 106.106 272.052 107.611C269.331 109.058 266.177 109.781 262.588 109.781C258.536 109.781 254.832 108.74 251.475 106.656C248.175 104.572 245.542 101.649 243.574 97.8866C241.664 94.0664 240.708 89.6962 240.708 84.7762ZM278.564 84.9499C278.564 81.9979 277.985 79.48 276.827 77.3962C275.669 75.2546 274.107 73.6339 272.139 72.5341C270.171 71.3765 268.058 70.7976 265.8 70.7976C263.543 70.7976 261.459 71.3475 259.549 72.4473C257.639 73.5471 256.076 75.1678 254.861 77.3094C253.703 79.3932 253.124 81.8821 253.124 84.7762C253.124 87.6704 253.703 90.2172 254.861 92.4167C256.076 94.5584 257.639 96.208 259.549 97.3656C261.517 98.5233 263.601 99.1021 265.8 99.1021C268.058 99.1021 270.171 98.5522 272.139 97.4525C274.107 96.2948 275.669 94.6741 276.827 92.5904C277.985 90.4487 278.564 87.9019 278.564 84.9499ZM362.412 60.2052C368.316 60.2052 373.062 62.0285 376.651 65.6751C380.298 69.2638 382.121 74.2995 382.121 80.7824V109H369.966V82.432C369.966 78.6696 369.011 75.8045 367.1 73.8365C365.19 71.8106 362.586 70.7976 359.286 70.7976C355.987 70.7976 353.353 71.8106 351.385 73.8365C349.475 75.8045 348.52 78.6696 348.52 82.432V109H336.365V82.432C336.365 78.6696 335.41 75.8045 333.5 73.8365C331.59 71.8106 328.985 70.7976 325.686 70.7976C322.328 70.7976 319.666 71.8106 317.698 73.8365C315.788 75.8045 314.833 78.6696 314.833 82.432V109H302.677V60.8998H314.833V66.7169C316.396 64.6911 318.392 63.0993 320.824 61.9416C323.312 60.784 326.033 60.2052 328.985 60.2052C332.747 60.2052 336.104 61.0155 339.056 62.6362C342.008 64.1991 344.295 66.4565 345.916 69.4085C347.478 66.6301 349.736 64.4016 352.688 62.7231C355.698 61.0445 358.939 60.2052 362.412 60.2052ZM390.53 84.7762C390.53 79.9141 391.485 75.6019 393.395 71.8395C395.363 68.0772 397.997 65.1831 401.296 63.1572C404.653 61.1313 408.387 60.1184 412.496 60.1184C416.085 60.1184 419.211 60.8419 421.873 62.2889C424.594 63.736 426.764 65.5593 428.385 67.7588V60.8998H440.627V109H428.385V101.967C426.822 104.225 424.652 106.106 421.873 107.611C419.153 109.058 415.998 109.781 412.409 109.781C408.358 109.781 404.653 108.74 401.296 106.656C397.997 104.572 395.363 101.649 393.395 97.8866C391.485 94.0664 390.53 89.6962 390.53 84.7762ZM428.385 84.9499C428.385 81.9979 427.806 79.48 426.648 77.3962C425.491 75.2546 423.928 73.6339 421.96 72.5341C419.992 71.3765 417.879 70.7976 415.622 70.7976C413.364 70.7976 411.281 71.3475 409.371 72.4473C407.46 73.5471 405.898 75.1678 404.682 77.3094C403.524 79.3932 402.946 81.8821 402.946 84.7762C402.946 87.6704 403.524 90.2172 404.682 92.4167C405.898 94.5584 407.46 96.208 409.371 97.3656C411.339 98.5233 413.422 99.1021 415.622 99.1021C417.879 99.1021 419.992 98.5522 421.96 97.4525C423.928 96.2948 425.491 94.6741 426.648 92.5904C427.806 90.4487 428.385 87.9019 428.385 84.9499Z" fill="#222222"/>
<circle cx="79.5" cy="79.5" r="71.5" stroke="#8FCD61" stroke-width="16"/>
<path d="M56.6956 91.1275H42.1837V59.5123L56.6956 57.4392V91.1275Z" fill="#8FCD61"/>
<path d="M102.304 91.6458H116.816V55.8843L102.304 53.2929V91.6458Z" fill="#8FCD61"/>
<path d="M77.4269 91.1275H61.8784V53.3389L77.4269 49.665V91.1275Z" fill="#8FCD61"/>
<rect x="82.6097" y="47.5918" width="14.5119" height="43.5357" fill="#8FCD61"/>
<rect x="82.6097" y="111.859" width="14.5119" height="34.2066" transform="rotate(-90 82.6097 111.859)" fill="#8FCD61"/>
</svg>
